<svg width="56" height="56" viewBox="0 0 56 56" fill="none" xmlns="http://www.w3.org/2000/svg">
<path d="M39.6706 14H53.668L39.668 0L39.6706 14Z" fill="#17457a"/>
<path d="M16.3346 4.66667H39.668V0H13.668C12.5634 0 11.668 0.895429 11.668 2V54C11.668 55.1046 12.5634 56 13.668 56H51.668C52.7725 56 53.668 55.1046 53.668 54V14H49.0013V51.3333H16.3346V4.66667Z" fill="#17457a"/>
<path d="M44.332 45.1111C44.332 45.9667 43.5445 46.6667 42.582 46.6667H4.08203C3.11953 46.6667 2.33203 45.9667 2.33203 45.1111V29.5556C2.33203 28.7 3.11953 28 4.08203 28H42.582C43.5445 28 44.332 28.7 44.332 29.5556V45.1111Z" fill="#17457a"/>
<path d="M10.5 41.9974V32.6641H14.4668C15.2294 32.6641 15.8791 32.7993 16.4159 33.0697C16.9527 33.337 17.3618 33.7092 17.6433 34.1862C17.928 34.6602 18.0704 35.207 18.0704 35.8268C18.0704 36.4466 17.9264 36.9935 17.6384 37.4674C17.3503 37.9414 16.933 38.3105 16.3864 38.5749C15.8431 38.8392 15.1853 38.9714 14.4128 38.9714H11.8845V37.39H14.0692C14.4783 37.39 14.8154 37.3247 15.0805 37.194C15.3489 37.0603 15.5486 36.8765 15.6795 36.6426C15.8137 36.4056 15.8808 36.1337 15.8808 35.8268C15.8808 35.5169 15.8137 35.2465 15.6795 35.0156C15.5486 34.7817 15.3489 34.6009 15.0805 34.4733C14.8121 34.3427 14.4718 34.2773 14.0594 34.2773H12.6258V41.9974H10.5Z" fill="white"/>
<path d="M23.0154 41.9974H19.4512V32.6641H23.0449C24.0563 32.6641 24.9269 32.8509 25.6567 33.2246C26.3866 33.5953 26.9479 34.1285 27.3407 34.8242C27.7367 35.52 27.9347 36.3524 27.9347 37.3216C27.9347 38.2938 27.7367 39.1293 27.3407 39.8281C26.9479 40.5269 26.3833 41.0631 25.6469 41.4368C24.9138 41.8105 24.0366 41.9974 23.0154 41.9974ZM21.577 40.3066H22.9271C23.5555 40.3066 24.0841 40.2033 24.5128 39.9967C24.9449 39.7871 25.2689 39.4635 25.4849 39.026C25.7042 38.5855 25.8138 38.0174 25.8138 37.3216C25.8138 36.6319 25.7042 36.0684 25.4849 35.6309C25.2689 35.1934 24.9465 34.8713 24.5177 34.6647C24.089 34.4581 23.5604 34.3548 22.932 34.3548H21.577V40.3066Z" fill="white"/>
<path d="M29.5094 41.9974V32.6641H36.1667V34.291H31.6352V36.515H35.7248V38.1419H31.6352V41.9974H29.5094Z" fill="white"/>
</svg>
