<svg width="56" height="56" viewBox="0 0 56 56" fill="none" xmlns="http://www.w3.org/2000/svg">
<path d="M39.6706 14H53.668L39.668 0L39.6706 14Z" fill="#17457a"/>
<path d="M16.3346 4.66667H39.668V0H13.668C12.5634 0 11.668 0.895429 11.668 2V54C11.668 55.1046 12.5634 56 13.668 56H51.668C52.7725 56 53.668 55.1046 53.668 54V14H49.0013V51.3333H16.3346V4.66667Z" fill="#17457a"/>
<path d="M44.332 45.1111C44.332 45.9667 43.5445 46.6667 42.582 46.6667H4.08203C3.11953 46.6667 2.33203 45.9667 2.33203 45.1111V29.5556C2.33203 28.7 3.11953 28 4.08203 28H42.582C43.5445 28 44.332 28.7 44.332 29.5556V45.1111Z" fill="#17457a"/>
<path d="M12.9536 32.7882L14.9682 35.8831H15.0463L17.0706 32.7882H19.456L16.4072 37.3285L19.5242 41.8688H17.095L15.0463 38.7695H14.9682L12.9195 41.8688H10.5L13.6268 37.3285L10.5585 32.7882H12.9536Z" fill="white"/>
<path d="M20.7925 41.8688V32.7882H22.9047V40.2859H27.1875V41.8688H20.7925Z" fill="white"/>
<path d="M34.0057 35.3998C33.9667 35.0421 33.7992 34.7642 33.5033 34.5662C33.2074 34.3682 32.8057 34.2691 32.2984 34.2691C31.9537 34.2691 31.6627 34.3135 31.4253 34.4021C31.1879 34.4879 31.0058 34.6076 30.8789 34.7613C30.7554 34.915 30.6936 35.0894 30.6936 35.2845C30.6871 35.4471 30.7245 35.5889 30.8058 35.7101C30.8903 35.8313 31.0058 35.9363 31.1521 36.0249C31.2985 36.1107 31.4676 36.186 31.6594 36.2511C31.8513 36.3132 32.0562 36.3664 32.274 36.4107L33.1716 36.6058C33.6074 36.6945 34.0074 36.8127 34.3716 36.9605C34.7358 37.1083 35.0512 37.2901 35.3179 37.5059C35.5846 37.7216 35.7911 37.9759 35.9374 38.2685C36.087 38.5611 36.1634 38.8966 36.1667 39.275C36.1634 39.8307 36.0073 40.3125 35.6984 40.7204C35.3927 41.1254 34.9504 41.4402 34.3716 41.6649C33.796 41.8865 33.1017 41.9974 32.2887 41.9974C31.4822 41.9974 30.7798 41.8851 30.1814 41.6604C29.5863 41.4358 29.1213 41.1032 28.7863 40.6628C28.4546 40.2194 28.2806 39.6711 28.2644 39.0178H30.3082C30.331 39.3223 30.4269 39.5765 30.596 39.7805C30.7684 39.9815 30.9976 40.1337 31.2838 40.2371C31.5732 40.3376 31.9001 40.3879 32.2643 40.3879C32.622 40.3879 32.9326 40.3406 33.196 40.246C33.4626 40.1514 33.6691 40.0199 33.8155 39.8514C33.9618 39.6829 34.035 39.4893 34.035 39.2706C34.035 39.0666 33.9683 38.8952 33.835 38.7562C33.7049 38.6173 33.5131 38.4991 33.2594 38.4015C33.009 38.304 32.7017 38.2153 32.3375 38.1355L31.2497 37.8872C30.4074 37.701 29.7424 37.4098 29.2546 37.0137C28.7668 36.6176 28.5245 36.0841 28.5278 35.4131C28.5245 34.8633 28.6855 34.3829 29.0107 33.9721C29.3391 33.5612 29.7895 33.2405 30.3619 33.0099C30.9342 32.7793 31.5846 32.6641 32.3131 32.6641C33.0545 32.6641 33.7017 32.7793 34.2545 33.0099C34.8106 33.2405 35.2431 33.5612 35.552 33.9721C35.861 34.3829 36.0203 34.8588 36.0301 35.3998H34.0057Z" fill="white"/>
</svg>
